<svg xmlns="http://www.w3.org/2000/svg" width="100%" viewBox="0 0 680 280" role="img"><style>
text{font-family:'Helvetica Neue',Arial,sans-serif}
.t{font-size:14px;fill:#3d3d3a}
.ts{font-size:12px;fill:#73726c}
.th{font-size:14px;font-weight:500;fill:#2c2c2a}
.box{fill:#f7f6f2;stroke:#d8d6cd}
.arr{stroke:#73726c;stroke-width:1.5;fill:none}
.leader{stroke:#b4b2a9;stroke-width:.5;stroke-dasharray:4 3;fill:none}
.c-blue{fill:#E6F1FB;stroke:#185FA5}.c-blue text.t,.c-blue text.th{fill:#0C447C}.c-blue text.ts{fill:#185FA5}
.c-teal{fill:#E1F5EE;stroke:#0F6E56}.c-teal text.t,.c-teal text.th{fill:#085041}.c-teal text.ts{fill:#0F6E56}
.c-coral{fill:#FAECE7;stroke:#993C1D}.c-coral text.t,.c-coral text.th{fill:#712B13}.c-coral text.ts{fill:#993C1D}
.c-purple{fill:#EEEDFE;stroke:#534AB7}.c-purple text.t,.c-purple text.th{fill:#3C3489}.c-purple text.ts{fill:#534AB7}
.c-amber{fill:#FAEEDA;stroke:#854F0B}.c-amber text.t,.c-amber text.th{fill:#633806}.c-amber text.ts{fill:#854F0B}
.c-green{fill:#EAF3DE;stroke:#3B6D11}.c-green text.t,.c-green text.th{fill:#27500A}.c-green text.ts{fill:#3B6D11}
.c-gray{fill:#F1EFE8;stroke:#5F5E5A}.c-gray text.t,.c-gray text.th{fill:#2C2C2A}.c-gray text.ts{fill:#5F5E5A}
</style><defs><marker id="arrow" viewBox="0 0 10 10" refX="8" refY="5" markerWidth="6" markerHeight="6" orient="auto-start-reverse"><path d="M2 1L8 5L2 9" fill="none" stroke="context-stroke" stroke-width="1.5" stroke-linecap="round" stroke-linejoin="round"/></marker></defs>
<text class="th" x="340" y="54" text-anchor="middle">spatial: full attention (bidirectional)</text>
<g class="c-blue">
<rect x="70" y="68" width="106" height="112" rx="10" stroke-width="0.5"/>
<circle cx="95" cy="96" r="5"/><circle cx="123" cy="96" r="5"/><circle cx="151" cy="96" r="5"/>
<circle cx="95" cy="124" r="5"/><circle cx="123" cy="124" r="5"/><circle cx="151" cy="124" r="5"/>
<circle cx="95" cy="152" r="5"/><circle cx="123" cy="152" r="5"/><circle cx="151" cy="152" r="5"/>
</g>
<g class="c-blue">
<rect x="287" y="68" width="106" height="112" rx="10" stroke-width="0.5"/>
<circle cx="312" cy="96" r="5"/><circle cx="340" cy="96" r="5"/><circle cx="368" cy="96" r="5"/>
<circle cx="312" cy="124" r="5"/><circle cx="340" cy="124" r="5"/><circle cx="368" cy="124" r="5"/>
<circle cx="312" cy="152" r="5"/><circle cx="340" cy="152" r="5"/><circle cx="368" cy="152" r="5"/>
</g>
<g class="c-blue">
<rect x="504" y="68" width="106" height="112" rx="10" stroke-width="0.5"/>
<circle cx="529" cy="96" r="5"/><circle cx="557" cy="96" r="5"/><circle cx="585" cy="96" r="5"/>
<circle cx="529" cy="124" r="5"/><circle cx="557" cy="124" r="5"/><circle cx="585" cy="124" r="5"/>
<circle cx="529" cy="152" r="5"/><circle cx="557" cy="152" r="5"/><circle cx="585" cy="152" r="5"/>
</g>
<g stroke="#EF9F27" stroke-width="1" opacity="0.65" fill="none">
<line x1="340" y1="124" x2="312" y2="96"/><line x1="340" y1="124" x2="340" y2="96"/><line x1="340" y1="124" x2="368" y2="96"/>
<line x1="340" y1="124" x2="312" y2="124"/><line x1="340" y1="124" x2="368" y2="124"/>
<line x1="340" y1="124" x2="312" y2="152"/><line x1="340" y1="124" x2="340" y2="152"/><line x1="340" y1="124" x2="368" y2="152"/>
<line x1="312" y1="96" x2="368" y2="152"/><line x1="368" y1="96" x2="312" y2="152"/>
</g>
<line x1="178" y1="124" x2="283" y2="124" class="arr" marker-end="url(#arrow)"/>
<line x1="395" y1="124" x2="500" y2="124" class="arr" marker-end="url(#arrow)"/>
<path d="M123 180 C220 242, 460 242, 555 180" class="arr" fill="none" marker-end="url(#arrow)"/>
<text class="ts" x="123" y="200" text-anchor="middle">t = 0</text>
<text class="ts" x="340" y="200" text-anchor="middle">t = 1</text>
<text class="ts" x="557" y="200" text-anchor="middle">t = 2</text>
<text class="ts" x="340" y="262" text-anchor="middle">temporal: causal — a frame sees only past frames</text>
</svg>