<svg xmlns="http://www.w3.org/2000/svg" width="100%" viewBox="0 0 680 300" role="img"><style>
text{font-family:'Helvetica Neue',Arial,sans-serif}
.t{font-size:14px;fill:#3d3d3a}
.ts{font-size:12px;fill:#73726c}
.th{font-size:14px;font-weight:500;fill:#2c2c2a}
.box{fill:#f7f6f2;stroke:#d8d6cd}
.arr{stroke:#73726c;stroke-width:1.5;fill:none}
.leader{stroke:#b4b2a9;stroke-width:.5;stroke-dasharray:4 3;fill:none}
.c-blue{fill:#E6F1FB;stroke:#185FA5}.c-blue text.t,.c-blue text.th{fill:#0C447C}.c-blue text.ts{fill:#185FA5}
.c-teal{fill:#E1F5EE;stroke:#0F6E56}.c-teal text.t,.c-teal text.th{fill:#085041}.c-teal text.ts{fill:#0F6E56}
.c-coral{fill:#FAECE7;stroke:#993C1D}.c-coral text.t,.c-coral text.th{fill:#712B13}.c-coral text.ts{fill:#993C1D}
.c-purple{fill:#EEEDFE;stroke:#534AB7}.c-purple text.t,.c-purple text.th{fill:#3C3489}.c-purple text.ts{fill:#534AB7}
.c-amber{fill:#FAEEDA;stroke:#854F0B}.c-amber text.t,.c-amber text.th{fill:#633806}.c-amber text.ts{fill:#854F0B}
.c-green{fill:#EAF3DE;stroke:#3B6D11}.c-green text.t,.c-green text.th{fill:#27500A}.c-green text.ts{fill:#3B6D11}
.c-gray{fill:#F1EFE8;stroke:#5F5E5A}.c-gray text.t,.c-gray text.th{fill:#2C2C2A}.c-gray text.ts{fill:#5F5E5A}
</style><defs><marker id="arrow" viewBox="0 0 10 10" refX="8" refY="5" markerWidth="6" markerHeight="6" orient="auto-start-reverse"><path d="M2 1L8 5L2 9" fill="none" stroke="context-stroke" stroke-width="1.5" stroke-linecap="round" stroke-linejoin="round"/></marker></defs>
<text class="th" x="142" y="46" text-anchor="middle">Bidirectional</text>
<text class="ts" x="142" y="64" text-anchor="middle">full attention</text>
<text class="th" x="352" y="46" text-anchor="middle">Causal</text>
<text class="ts" x="352" y="64" text-anchor="middle">frame-level</text>
<text class="th" x="562" y="46" text-anchor="middle">Block-causal</text>
<text class="ts" x="562" y="64" text-anchor="middle">chunk-level</text>
<g class="c-purple">
<rect x="70" y="80" width="144" height="144" stroke-width="0"/>
<rect x="280" y="80" width="24" height="24" stroke-width="0"/>
<rect x="280" y="104" width="48" height="24" stroke-width="0"/>
<rect x="280" y="128" width="72" height="24" stroke-width="0"/>
<rect x="280" y="152" width="96" height="24" stroke-width="0"/>
<rect x="280" y="176" width="120" height="24" stroke-width="0"/>
<rect x="280" y="200" width="144" height="24" stroke-width="0"/>
<rect x="490" y="80" width="48" height="24" stroke-width="0"/>
<rect x="490" y="104" width="48" height="24" stroke-width="0"/>
<rect x="490" y="128" width="96" height="24" stroke-width="0"/>
<rect x="490" y="152" width="96" height="24" stroke-width="0"/>
<rect x="490" y="176" width="144" height="24" stroke-width="0"/>
<rect x="490" y="200" width="144" height="24" stroke-width="0"/>
</g>
<path fill="none" stroke="#d8d6cd" stroke-width="0.5" d="M70 80V224 M94 80V224 M118 80V224 M142 80V224 M166 80V224 M190 80V224 M214 80V224 M70 80H214 M70 104H214 M70 128H214 M70 152H214 M70 176H214 M70 200H214 M70 224H214"/>
<path fill="none" stroke="#d8d6cd" stroke-width="0.5" d="M280 80V224 M304 80V224 M328 80V224 M352 80V224 M376 80V224 M400 80V224 M424 80V224 M280 80H424 M280 104H424 M280 128H424 M280 152H424 M280 176H424 M280 200H424 M280 224H424"/>
<path fill="none" stroke="#d8d6cd" stroke-width="0.5" d="M490 80V224 M514 80V224 M538 80V224 M562 80V224 M586 80V224 M610 80V224 M634 80V224 M490 80H634 M490 104H634 M490 128H634 M490 152H634 M490 176H634 M490 200H634 M490 224H634"/>
<rect class="c-purple" x="70" y="252" width="14" height="14" rx="3" stroke-width="0"/>
<text class="ts" x="92" y="263">= query (row) attends to key (column)</text>
<text class="ts" x="70" y="286">rows = current frame · columns = frame being attended to · time flows top-left to bottom-right</text>
</svg>